<svg width="30" height="30" viewBox="0 0 30 30" fill="none" xmlns="http://www.w3.org/2000/svg">
<g id="git-svgrepo-com 1" clip-path="url(#clip0_47_1218)">
<g id="SVGRepo_iconCarrier">
<path id="Vector" d="M28.5262 13.7466L16.2496 1.47097C15.9215 1.14378 15.4687 0.941284 14.9681 0.941284C14.4675 0.941284 14.0146 1.14378 13.6865 1.47097L11.1431 4.0191L14.3765 7.25253C14.5828 7.18035 14.82 7.1391 15.0675 7.1391C16.2571 7.1391 17.2209 8.10285 17.2209 9.29253C17.2209 9.54472 17.1778 9.78566 17.0981 10.0107L17.1028 9.99566L20.2171 13.1119C20.4253 13.0378 20.6662 12.9947 20.9165 12.9947C22.1053 12.9947 23.069 13.9585 23.069 15.1472C23.069 16.336 22.1053 17.2997 20.9165 17.2997C19.7278 17.2997 18.764 16.336 18.764 15.1472C18.764 14.8538 18.8231 14.5744 18.929 14.3194L18.9234 14.3335L16.0078 11.4328V19.0772C16.724 19.4382 17.2068 20.1675 17.2068 21.0094C17.2068 22.2 16.2412 23.1657 15.0506 23.1657C13.86 23.1657 12.8943 22.2 12.8943 21.0094C12.8943 20.415 13.1343 19.8778 13.5234 19.4878C13.7212 19.29 13.9565 19.1297 14.2181 19.0172L14.2321 19.0116V11.2922C13.4428 10.9603 12.899 10.1925 12.899 9.2991C12.899 8.9991 12.96 8.7141 13.0706 8.45441L13.065 8.46847L9.88776 5.27628L1.46901 13.6894C1.14276 14.0185 0.942139 14.4713 0.942139 14.9719C0.942139 15.4725 1.1437 15.9253 1.46995 16.2544L13.7475 28.5282C14.0746 28.8563 14.5275 29.0588 15.0281 29.0588C15.5287 29.0588 15.9806 28.8563 16.3087 28.5282L28.5281 16.3088C28.8562 15.9816 29.0596 15.5278 29.0596 15.0282C29.0596 14.5285 28.8562 14.0747 28.5281 13.7475L28.5262 13.7466Z" fill="#D1D5DB"/>
</g>
</g>
<defs>
<clipPath id="clip0_47_1218">
<rect width="30" height="30" fill="white"/>
</clipPath>
</defs>
</svg>
