<svg width="30" height="30" viewBox="0 0 30 30" fill="none" xmlns="http://www.w3.org/2000/svg">
<g id="brand-js-svgrepo-com 1">
<g id="SVGRepo_iconCarrier">
<path id="Vector" d="M25.102 2.14282H4.89792C3.37688 2.14282 2.14282 3.37687 2.14282 4.89792V25.102C2.14282 26.6231 3.37688 27.8571 4.89792 27.8571H25.102C26.6231 27.8571 27.8571 26.6231 27.8571 25.102V4.89792C27.8571 3.37687 26.6231 2.14282 25.102 2.14282ZM16.1364 22.1977C16.1364 24.7002 14.6671 25.8424 12.5261 25.8424C10.5918 25.8424 9.47254 24.8437 8.89856 23.6326L10.8673 22.4445C11.2461 23.116 11.5905 23.6843 12.4228 23.6843C13.2149 23.6843 13.72 23.3743 13.72 22.1632V13.9496H16.1364V22.1977ZM21.8533 25.8424C19.609 25.8424 18.1569 24.7748 17.4509 23.3743L19.4196 22.2379C19.9362 23.0816 20.6135 23.7072 21.8016 23.7072C22.8003 23.7072 23.4432 23.2079 23.4432 22.5134C23.4432 21.6868 22.7889 21.3941 21.6811 20.9062L21.0784 20.6479C19.3335 19.9075 18.1798 18.9719 18.1798 17.0032C18.1798 15.1894 19.5631 13.8118 21.7155 13.8118C23.2538 13.8118 24.3558 14.3456 25.1479 15.7461L23.2653 16.9515C22.852 16.2111 22.4043 15.9183 21.7098 15.9183C21.0038 15.9183 20.5561 16.366 20.5561 16.9515C20.5561 17.6747 21.0038 17.9674 22.0427 18.4209L22.6454 18.6792C24.7002 19.5574 25.8539 20.4585 25.8539 22.4789C25.8539 24.6486 24.1435 25.8424 21.8533 25.8424Z" fill="#D1D5DB"/>
</g>
</g>
</svg>
