<svg width="30" height="30" viewBox="0 0 30 30" fill="none" xmlns="http://www.w3.org/2000/svg">
<g id="mysql-svgrepo-com 1">
<g id="SVGRepo_iconCarrier">
<path id="Vector" d="M29.0297 14.1255C28.9477 14.1195 28.8527 14.1155 28.7566 14.1155C28.2725 14.1155 27.8093 14.2055 27.3832 14.3696L27.4092 14.3606C27.2842 14.4106 27.0841 14.4106 27.0671 14.5696C27.1361 14.6357 27.1461 14.7447 27.2042 14.8367C27.3212 15.0348 27.4652 15.2028 27.6333 15.3429L27.6363 15.3459C27.8113 15.4829 27.9864 15.616 28.1705 15.733C28.4955 15.9331 28.8647 16.0521 29.1828 16.2531C29.3638 16.3702 29.5489 16.5192 29.7329 16.6443C29.8239 16.7063 29.883 16.8193 30 16.8593V16.8343C29.943 16.7593 29.925 16.6503 29.869 16.5672C29.7849 16.4832 29.7019 16.4082 29.6189 16.3262C29.3708 16.0011 29.0837 15.723 28.7616 15.4909L28.7496 15.4829C28.4825 15.3009 27.8974 15.0458 27.7873 14.7387L27.7713 14.7207C27.9894 14.6897 28.1835 14.6437 28.3705 14.5816L28.3465 14.5886C28.6306 14.5136 28.8907 14.5296 29.1838 14.4566C29.3158 14.4226 29.4498 14.3816 29.5839 14.3396V14.2646C29.4338 14.1145 29.3218 13.9104 29.1667 13.7704C28.7576 13.4103 28.3065 13.0722 27.8313 12.7681L27.7863 12.7411C27.5243 12.574 27.1912 12.466 26.9151 12.324C26.815 12.274 26.648 12.2489 26.59 12.1649C26.4599 11.9799 26.3449 11.7678 26.2539 11.5437L26.2459 11.5217C26.0005 11.0456 25.7724 10.5611 25.5617 10.0683C25.4176 9.68518 25.2746 9.37108 25.1135 9.06699L25.1365 9.11401C24.3503 7.79461 23.255 6.73429 21.9476 6.01108L21.9046 5.98907C21.5955 5.83602 21.2364 5.71699 20.8593 5.64997L20.8343 5.64597C20.6252 5.63596 20.4171 5.62096 20.2091 5.61196C20.063 5.51793 19.937 5.4219 19.8189 5.31587L19.8219 5.31887C19.3468 5.01878 18.1174 4.36858 17.7673 5.22884C17.5423 5.771 18.1014 6.30617 18.2945 6.58125C18.4485 6.7643 18.5886 6.96936 18.7096 7.18643L18.7196 7.20644C18.7786 7.35148 18.7946 7.50052 18.8537 7.65157C18.9987 8.1037 19.1457 8.47482 19.3128 8.83392L19.2868 8.7719C19.3858 8.97096 19.4888 9.14002 19.6039 9.30006L19.5959 9.28806C19.6629 9.37909 19.7779 9.4221 19.8049 9.57214C19.7189 9.7532 19.6519 9.96326 19.6149 10.1823L19.6129 10.1963C19.5049 10.5284 19.4418 10.9115 19.4418 11.3087C19.4418 11.9299 19.5949 12.515 19.865 13.0292L19.855 13.0092C19.989 13.2162 20.3071 13.6764 20.7332 13.5003C21.1083 13.3503 21.0253 12.8751 21.1333 12.457C21.1583 12.357 21.1423 12.291 21.1934 12.2229V12.2419C21.3104 12.477 21.4284 12.7011 21.5355 12.9362C21.8376 13.3713 22.1967 13.7414 22.6068 14.0465L22.6198 14.0555C22.8198 14.2055 22.9789 14.4656 23.229 14.5576V14.5326H23.21C23.1529 14.4706 23.0899 14.4156 23.0209 14.3686L23.0169 14.3666C22.8619 14.2145 22.7178 14.0505 22.5878 13.8774L22.5798 13.8664C22.2537 13.4263 21.9436 12.9282 21.6745 12.405L21.6455 12.344C21.5085 12.0819 21.3934 11.7988 21.2834 11.5397C21.2334 11.4397 21.2334 11.2897 21.1493 11.2396C21.0013 11.4057 20.8683 11.5908 20.7572 11.7898L20.7492 11.8058C20.6212 12.1789 20.5372 12.6101 20.5152 13.0572V13.0682C20.4811 13.0772 20.4981 13.0682 20.4811 13.0862C20.2141 13.0212 20.122 12.7441 20.022 12.511C19.886 12.1449 19.8069 11.7208 19.8069 11.2797C19.8069 10.9236 19.858 10.5794 19.954 10.2543L19.948 10.2804C20.007 10.1053 20.2571 9.55314 20.157 9.38509C20.105 9.22604 19.94 9.13501 19.848 9.00598C19.7389 8.85193 19.6389 8.67688 19.5559 8.49182L19.5479 8.47182C19.3478 8.00468 19.2478 7.48652 19.0307 7.01938C18.8997 6.77531 18.7616 6.56524 18.6066 6.36918L18.6136 6.37819C18.4485 6.18713 18.2965 5.97407 18.1644 5.748L18.1534 5.72799C18.1124 5.63696 18.0534 5.48592 18.1194 5.38589C18.1314 5.32787 18.1775 5.28286 18.2365 5.27386C18.3465 5.18383 18.6566 5.30086 18.7646 5.35088C19.0817 5.47091 19.3548 5.61196 19.6079 5.77801L19.5919 5.768C19.7089 5.85003 19.836 6.00908 19.986 6.05009H20.161C20.4281 6.10911 20.7302 6.06809 20.9803 6.14112C21.4394 6.29616 21.8365 6.49022 22.2037 6.72829L22.1827 6.71529C23.287 7.4285 24.1713 8.39279 24.7694 9.53213L24.7894 9.57315C24.8895 9.7652 24.9335 9.94226 25.0245 10.1423C25.1996 10.5544 25.4156 10.9716 25.5937 11.3697C25.7627 11.7978 25.9628 12.1679 26.2009 12.509L26.1889 12.491C26.3139 12.6661 26.816 12.7571 27.0411 12.8481C27.2782 12.9312 27.4682 13.0102 27.6523 13.0992L27.6153 13.0832C27.9024 13.2583 28.1825 13.4583 28.4525 13.6504C28.5896 13.7454 29.0067 13.9545 29.0317 14.1225L29.0297 14.1255ZM17.3022 21.4407C17.3022 21.4557 17.3032 21.4727 17.3032 21.4897C17.3032 22.0479 17.0541 22.547 16.66 22.8831L16.657 22.8851C16.2249 23.2372 15.6677 23.4513 15.0605 23.4513C15.0135 23.4513 14.9665 23.4503 14.9205 23.4473H14.9265C14.1873 23.4373 13.5071 23.1972 12.9499 22.7961L12.9599 22.8031L13.256 22.2079C13.6851 22.448 14.1953 22.5971 14.7374 22.6181H14.7434C14.7704 22.6201 14.8014 22.6211 14.8334 22.6211C15.1655 22.6211 15.4746 22.517 15.7277 22.34L15.7227 22.343C15.9518 22.1689 16.0978 21.8968 16.0978 21.5907C16.0978 21.5847 16.0978 21.5797 16.0978 21.5737V21.5747C16.0978 21.1626 15.8107 20.8125 15.2876 20.5184C14.8024 20.2523 13.8341 19.6972 13.8341 19.6972C13.356 19.4011 13.0429 18.8799 13.0429 18.2858C13.0429 18.2648 13.0429 18.2437 13.0439 18.2227V18.2257C13.0429 18.2067 13.0429 18.1847 13.0429 18.1627C13.0429 17.6476 13.27 17.1854 13.6291 16.8713L13.6311 16.8693C14.0132 16.5452 14.5124 16.3482 15.0575 16.3482C15.0925 16.3482 15.1265 16.3492 15.1605 16.3502H15.1555C15.1645 16.3502 15.1756 16.3502 15.1866 16.3502C15.8257 16.3502 16.4209 16.5412 16.9171 16.8703L16.9051 16.8633L16.639 17.4585C16.2479 17.2825 15.7917 17.1764 15.3116 17.1714H15.3096C15.2856 17.1694 15.2586 17.1684 15.2306 17.1684C14.9505 17.1684 14.6924 17.2665 14.4903 17.4305L14.4923 17.4285C14.3033 17.5855 14.1833 17.8206 14.1823 18.0837C14.1823 18.4938 14.4743 18.8459 15.0145 19.146C15.5057 19.4151 16.4979 19.9833 16.4979 19.9833C16.9861 20.2704 17.3092 20.7925 17.3092 21.3907C17.3092 21.4087 17.3092 21.4277 17.3082 21.4457V21.4427L17.3022 21.4407ZM19.3748 21.9719C19.1017 21.4267 18.9427 20.7845 18.9427 20.1053C18.9427 19.9983 18.9467 19.8922 18.9547 19.7882L18.9537 19.8022C18.9537 18.061 19.4828 17.1901 20.5412 17.1894C20.5672 17.1874 20.5982 17.1864 20.6302 17.1864C21.1053 17.1864 21.5225 17.4345 21.7595 17.8086L21.7625 17.8136C22.0336 18.3558 22.1927 18.996 22.1927 19.6722C22.1927 19.7762 22.1887 19.8792 22.1817 19.9813L22.1827 19.9673C22.1827 21.7225 21.6535 22.6007 20.5952 22.6021C20.5682 22.6041 20.5372 22.6051 20.5062 22.6051C20.031 22.6051 19.6129 22.357 19.3758 21.9829L19.3728 21.9779L19.3748 21.9719ZM23.49 23.5243L22.2197 22.8991C22.3357 22.8021 22.4397 22.7001 22.5358 22.59L22.5388 22.587C23.0519 21.8948 23.36 21.0236 23.36 20.0813C23.36 19.9723 23.356 19.8642 23.348 19.7572L23.349 19.7712C23.349 17.4839 22.4511 16.3395 20.6552 16.3382C20.6152 16.3362 20.5682 16.3352 20.5212 16.3352C19.7539 16.3352 19.0647 16.6723 18.5956 17.2074L18.5936 17.2104C18.0824 17.9026 17.7753 18.7729 17.7753 19.7152C17.7753 19.8212 17.7793 19.9263 17.7873 20.0303L17.7863 20.0163C17.7773 20.1173 17.7723 20.2353 17.7723 20.3544C17.7723 21.2286 18.0464 22.0389 18.5126 22.7041L18.5036 22.6911C18.9527 23.1692 19.5899 23.4673 20.2951 23.4673C20.3611 23.4673 20.4261 23.4643 20.4901 23.4593L20.4811 23.4603C20.4901 23.4603 20.5021 23.4603 20.5132 23.4603C20.8242 23.4603 21.1253 23.4153 21.4104 23.3323L21.3884 23.3383L23.0449 24.3036L23.495 23.5263L23.49 23.5243ZM27.6393 23.3553H24.3513V16.4432H25.4576V22.506H27.6393V23.3553ZM12.2337 18.2557C11.9466 20.3404 11.2894 22.2219 10.3281 23.9074L10.3681 23.8304C9.98299 24.5716 9.25478 25.0878 8.39952 25.1708L8.38952 25.1718C8.13044 25.1578 7.88937 25.0958 7.6703 24.9948L7.6823 24.9998V24.3826C7.81935 24.4036 7.97739 24.4156 8.13844 24.4156C8.14744 24.4156 8.15645 24.4156 8.16645 24.4156C8.18245 24.4166 8.19946 24.4166 8.21747 24.4166C8.50655 24.4166 8.77163 24.3116 8.97569 24.1365L8.97369 24.1375C9.19376 23.9565 9.3348 23.6864 9.3428 23.3823C9.28979 22.9442 9.18876 22.544 9.04371 22.1669L9.05572 22.2009L7.78834 18.2557H8.92568L9.83495 21.2056C9.997 21.6218 10.091 22.1039 10.091 22.6071C10.091 22.6081 10.091 22.6091 10.091 22.6091C10.5732 21.3467 10.9393 19.8742 11.1253 18.3468L11.1343 18.2547L12.2337 18.2557ZM7.21216 23.3553H6.05382C6.02114 21.5141 5.90877 19.6765 5.71671 17.8426H5.70671L3.94418 23.3553H3.06292L1.31239 17.8426H1.30039C1.16368 19.6772 1.08232 21.5147 1.05632 23.3553H0C0.0686873 20.8979 0.239405 18.5935 0.512154 16.4422H1.94958L3.61809 21.5227H3.62809L5.31159 16.4422H6.68C6.98276 18.961 7.16115 21.2653 7.21516 23.3553H7.21216ZM20.5062 6.86333C20.5042 6.86333 20.5012 6.86333 20.4981 6.86333C20.3791 6.86333 20.2641 6.87834 20.154 6.90635L20.164 6.90434V6.92035H20.1811C20.2671 7.04839 20.3551 7.15942 20.4501 7.26345L20.4481 7.26145C20.5152 7.39549 20.5732 7.52853 20.6402 7.66157L20.6572 7.64257C20.7662 7.55654 20.8353 7.4245 20.8353 7.27646C20.8353 7.25845 20.8342 7.24145 20.8322 7.22344V7.22544C20.7822 7.16642 20.7752 7.10841 20.7322 7.05039C20.6822 6.96636 20.5752 6.92535 20.5072 6.85933L20.5062 6.86333Z" fill="#D1D5DB"/>
</g>
</g>
</svg>
