<svg width="30" height="30" viewBox="0 0 30 30" fill="none" xmlns="http://www.w3.org/2000/svg">
<g id="php02-svgrepo-com 1">
<g id="SVGRepo_iconCarrier">
<g id="5151e0c8492e5103c096af88a51e39be">
<path id="Vector" d="M10.069 11.9751C9.41643 11.2281 8.3782 10.8546 6.95496 10.8546H2.22422L0.0292969 22.1479H2.4893L3.07289 19.1455H5.1801C6.10992 19.1455 6.8748 19.048 7.47539 18.8523C8.0758 18.6572 8.6216 18.3297 9.11279 17.8699C9.52512 17.491 9.8584 17.0731 10.114 16.616C10.3691 16.1591 10.5504 15.655 10.6576 15.1036C10.9179 13.7648 10.7215 12.7221 10.069 11.9751ZM8.11482 14.9311C7.94473 15.8051 7.61725 16.4289 7.13191 16.8026C6.64629 17.1764 5.90748 17.3633 4.91578 17.3633H3.41918L4.33781 12.6367H6.02344C6.95813 12.6367 7.58098 12.8091 7.89234 13.1542C8.20348 13.4994 8.27783 14.0916 8.11482 14.9311ZM19.7946 13.8902L18.7734 19.1455H16.2939L17.2649 14.1487C17.3753 13.5802 17.3348 13.1925 17.1428 12.9858C16.9511 12.779 16.5427 12.6755 15.9182 12.6755H13.9676L12.7103 19.1455H10.2696L12.4645 7.85217H14.9053L14.3217 10.8546H16.4962C17.8641 10.8546 18.8078 11.0935 19.3273 11.5705C19.8468 12.0478 20.0022 12.8211 19.7946 13.8902ZM29.2707 11.9751C28.6182 11.2281 27.58 10.8546 26.157 10.8546H21.4262L19.2313 22.1479H21.6913L22.2749 19.1455H24.3821C25.3119 19.1455 26.0765 19.048 26.6771 18.8523C27.2776 18.6572 27.8234 18.3297 28.3146 17.8699C28.7268 17.491 29.0604 17.0731 29.3158 16.616C29.5709 16.1591 29.7521 15.655 29.8594 15.1036C30.1196 13.7648 29.9235 12.7221 29.2707 11.9751ZM27.3168 14.9311C27.1467 15.8051 26.8192 16.4289 26.3336 16.8026C25.8482 17.1764 25.1092 17.3633 24.1175 17.3633H22.6212L23.5398 12.6367H25.2253C26.1599 12.6367 26.7827 12.8091 27.0943 13.1542C27.4055 13.4994 27.4795 14.0916 27.3168 14.9311Z" fill="#D1D5DB"/>
</g>
</g>
</g>
</svg>
