<svg width="30" height="30" viewBox="0 0 30 30" fill="none" xmlns="http://www.w3.org/2000/svg">
<g id="react-svgrepo-com 1">
<g id="SVGRepo_iconCarrier">
<path id="Vector" d="M13.4184 20.8228C13.934 20.8463 14.4609 20.8631 14.9943 20.8631C15.5334 20.8631 16.0659 20.8519 16.5881 20.8228C16.0659 21.4978 15.5503 22.095 15.0046 22.6641L15.0121 22.6566C14.4693 22.0941 13.9481 21.4959 13.4568 20.8734L13.4184 20.8228ZM8.07651 20.0728C9.09183 20.3306 10.3303 20.55 11.594 20.685L11.7168 20.6953C12.4903 21.7575 13.2721 22.6922 14.1112 23.5716L14.1009 23.5603C12.8718 24.9319 11.2134 25.8956 9.33745 26.2416L9.28589 26.2491C9.28214 26.2491 9.27839 26.2491 9.27464 26.2491C9.04214 26.2491 8.82276 26.1919 8.63058 26.0906L8.63808 26.0944C7.85808 25.6491 7.51964 23.9456 7.78308 21.7566C7.84589 21.2175 7.94901 20.6503 8.07558 20.0719L8.07651 20.0728ZM21.9356 20.0606C22.0462 20.505 22.1503 21.0713 22.2243 21.6469L22.2328 21.7275C22.5018 23.9156 22.17 25.6172 21.3965 26.0719C21.224 26.1675 21.0178 26.2238 20.7984 26.2238C20.7768 26.2238 20.7553 26.2228 20.7337 26.2219H20.7365C18.8118 25.8703 17.1543 24.9131 15.9281 23.5584L15.9215 23.5509C16.7456 22.6856 17.5218 21.7528 18.2334 20.7713L18.2878 20.6925C19.6715 20.5481 20.9118 20.325 22.1203 20.0203L21.9356 20.0597V20.0606ZM9.17245 16.5619C9.40683 17.0213 9.65245 17.4788 9.92245 17.9381C10.1918 18.395 10.4671 18.8413 10.7484 19.2769C9.93464 19.1578 9.14901 19.0078 8.39808 18.825C8.60901 18.0872 8.87339 17.3231 9.17151 16.56L9.17245 16.5619ZM20.8237 16.5384C21.134 17.3081 21.3974 18.0759 21.6159 18.8203C20.8659 19.0041 20.0737 19.1597 19.2543 19.2769C19.5356 18.8372 19.8168 18.3844 20.0803 17.9203C20.3437 17.4638 20.5903 16.9969 20.8256 16.5375L20.8237 16.5384ZM7.14276 11.5238C7.55151 12.9094 7.99026 14.0681 8.5012 15.1856L8.43089 15.015C7.99401 15.9572 7.56183 17.1094 7.20745 18.2953L7.1587 18.4875C6.49683 18.2841 5.96433 18.0844 5.44589 17.8603L5.5537 17.9016C3.52495 17.0381 2.21245 15.9028 2.21245 15.0028C2.21245 14.1028 3.52495 12.9619 5.5537 12.1022C6.04589 11.8913 6.58589 11.7009 7.14276 11.5238ZM22.8356 11.5191C23.4028 11.6944 23.9418 11.8903 24.4462 12.1022C26.475 12.9694 27.7874 14.1028 27.7874 15.0028C27.7818 15.9028 26.4693 17.0409 24.4406 17.9025C23.9484 18.1134 23.4093 18.3028 22.8534 18.48C22.4409 17.0897 22.0021 15.9319 21.4931 14.8125L21.5643 14.9888C21.9993 14.0475 22.4325 12.8953 22.7859 11.7094L22.8356 11.5163V11.5191ZM19.2468 10.7288C20.0615 10.8497 20.8462 10.9978 21.5971 11.1825C21.3862 11.9231 21.1228 12.6844 20.8237 13.4475C20.5893 12.9909 20.3437 12.5306 20.0737 12.0722C19.8103 11.6128 19.529 11.1656 19.2478 10.7297L19.2468 10.7288ZM10.7418 10.7288C10.4606 11.1703 10.1793 11.6222 9.91683 12.0881C9.65339 12.5447 9.40683 13.0041 9.17245 13.4634C8.86214 12.6947 8.5987 11.9288 8.38026 11.1825C9.13026 11.0072 9.92058 10.8506 10.7409 10.7306L10.7418 10.7288ZM15 10.4306C15.8671 10.4306 16.7306 10.47 17.58 10.5394C18.0556 11.2213 18.5175 11.9475 18.9656 12.7181C19.4012 13.4681 19.7987 14.2281 20.1581 14.9981C19.7971 15.7659 19.4015 16.5328 18.9712 17.2828C18.5259 18.0563 18.0656 18.7922 17.5884 19.4738C16.7353 19.5478 15.8709 19.5881 14.999 19.5881C14.1318 19.5881 13.2684 19.5469 12.419 19.4794C11.9437 18.7978 11.4796 18.0684 11.0334 17.3006C10.5978 16.5506 10.2003 15.7906 9.84089 15.0206C10.1962 14.2509 10.5975 13.4822 11.0278 12.7313C11.4731 11.9578 11.9334 11.2247 12.4106 10.5431C13.2637 10.4681 14.1281 10.4288 15 10.4288V10.4306ZM14.9821 7.3547C15.5259 7.9172 16.0471 8.51439 16.5375 9.13689L16.575 9.18657C16.0593 9.16313 15.5324 9.1472 14.999 9.1472C14.4599 9.1472 13.9275 9.15845 13.4053 9.18657C13.9265 8.51157 14.4421 7.91438 14.9887 7.34532L14.9812 7.35282L14.9821 7.3547ZM9.26245 3.78095C11.1871 4.13345 12.8437 5.09063 14.0709 6.44438L14.0774 6.45188C13.2534 7.31813 12.4771 8.25095 11.7656 9.23439L11.7112 9.31313C10.3284 9.45657 9.08808 9.67782 7.88058 9.98251L8.06433 9.94313C7.93308 9.36938 7.83558 8.81345 7.76714 8.28001C7.49808 6.09188 7.82995 4.39032 8.60339 3.93751C8.79651 3.84657 9.02245 3.79032 9.26058 3.78282H9.26339L9.26245 3.78095ZM20.7093 3.75751V3.76501C20.7215 3.76501 20.7356 3.76407 20.7506 3.76407C20.9746 3.76407 21.1856 3.81938 21.3712 3.91688L21.3637 3.91313C22.1437 4.36032 22.4821 6.06282 22.2187 8.25282C22.1559 8.79188 22.0528 9.36001 21.9262 9.93938C20.909 9.67876 19.6706 9.45845 18.4068 9.32438L18.2868 9.31407C17.5125 8.25095 16.7306 7.31626 15.8915 6.43595L15.9028 6.4472C17.1318 5.07845 18.7875 4.1147 20.6596 3.76688L20.7121 3.75845L20.7093 3.75751ZM20.715 2.48063C18.4256 2.82845 16.4437 3.94032 14.9962 5.54438L14.9887 5.55282C13.5309 3.9497 11.549 2.84532 9.31589 2.51063L9.26339 2.50407C9.2512 2.50407 9.2362 2.50407 9.2212 2.50407C8.76089 2.50407 8.3287 2.62501 7.95464 2.83688L7.96776 2.83032C6.35714 3.75938 5.9962 6.65438 6.82776 10.2872C3.26151 11.3888 0.942139 13.1494 0.942139 15.0047C0.942139 16.8675 3.2737 18.6328 6.85026 19.7259C6.02526 23.3728 6.3937 26.2725 8.00808 27.2006C8.36245 27.4041 8.78808 27.5231 9.24089 27.5231C9.26151 27.5231 9.28214 27.5231 9.30183 27.5222H9.29901C11.5884 27.1744 13.5703 26.0616 15.0178 24.4566L15.0253 24.4481C16.4831 26.0522 18.465 27.1566 20.6981 27.4913L20.7506 27.4978C20.7646 27.4978 20.7825 27.4978 20.7993 27.4978C21.2568 27.4978 21.6871 27.3778 22.0593 27.1688L22.0462 27.1753C23.6559 26.2472 24.0178 23.3522 23.1862 19.7184C26.7393 18.6263 29.0587 16.8619 29.0587 15.0038C29.0587 13.1409 26.7271 11.3756 23.1506 10.2797C23.9756 6.63657 23.6071 3.73407 21.9928 2.80501C21.6346 2.5997 21.2053 2.47876 20.7478 2.47876C20.7356 2.47876 20.7234 2.47876 20.7112 2.47876H20.7131L20.715 2.48063ZM17.6128 15.0047C17.6128 16.4513 16.4399 17.6241 14.9934 17.6241C13.5468 17.6241 12.374 16.4513 12.374 15.0047C12.374 13.5581 13.5468 12.3853 14.9934 12.3853C15.7171 12.3853 16.3715 12.6788 16.8459 13.1522C17.3203 13.6266 17.6128 14.2809 17.6128 15.0047Z" fill="#D1D5DB"/>
</g>
</g>
</svg>
